<?xml version="1.0" encoding="utf-8"?>
<!-- Generator: Adobe Illustrator 24.1.1, SVG Export Plug-In . SVG Version: 6.00 Build 0)  -->
<svg version="1.1" id="Layer_1" xmlns="http://www.w3.org/2000/svg" xmlns:xlink="http://www.w3.org/1999/xlink" x="0px" y="0px"
	 viewBox="0 0 164 26" style="enable-background:new 0 0 164 26;" xml:space="preserve">
<style type="text/css">
	.st0{fill:#F2AC3B;stroke:#000000;stroke-width:0.75;stroke-miterlimit:10;}
	.st1{fill:#FDC869;stroke:#000000;stroke-width:0.75;stroke-miterlimit:10;}
	.st2{font-family:'SquadaOne-Regular';}
	.st3{font-size:4.8504px;}
	.st4{font-size:7.2412px;}
	.st5{font-size:20.4801px;}
</style>
<g>
	<g>
		<g>
			<path class="st0" d="M36.4,8.1L20,2.9c-1-0.3-2.1,0.2-2.5,1.1L13,14.4c-0.3,0.7-0.2,1.4,0.3,1.8l6.9,6.5c0.4,0.4,0.9,0.5,1.5,0.4
				l9.5-1.3c0.7-0.1,1.3-0.6,1.6-1.2l4.6-10.4C37.8,9.4,37.4,8.4,36.4,8.1z"/>
			<path class="st1" d="M32.9,4.2H15.8c-1,0-1.8,0.8-1.8,1.8v11.2c0,0.7,0.4,1.4,1.1,1.6l8.9,4.1c0.5,0.2,1.1,0.2,1.6,0l8.2-4.1
				c0.6-0.3,1-0.9,1-1.6V6C34.7,5,33.9,4.2,32.9,4.2z"/>
			<g>
				<text transform="matrix(1 0 0 1 18.604 10.7409)" class="st2 st3">masuk</text>
				<text transform="matrix(1 0 0 1 17.9458 16.7429)" class="st2 st4">CPNS</text>
				<text transform="matrix(1 0 0 1 41.9263 19.0798)" class="st2 st5">masukCPNS.id</text>
			</g>
		</g>
	</g>
	<g>
		<path d="M21.6,19.6c-0.5-0.3-1-0.3-1.5-0.5c-0.6-0.1-1.1-0.3-1.7-0.5c-0.5-0.2-1.1-0.4-1.6-0.6c-0.5-0.2-1-0.5-1.6-0.7
			c-0.1,0-0.2,0.1-0.1,0.2c0.8,0.8,2,1.3,3,1.7c0.6,0.2,1.1,0.4,1.7,0.5c0.5,0.1,1.1,0.3,1.7,0.1C21.8,19.9,21.8,19.6,21.6,19.6z"/>
		<path d="M23.8,19.2c-0.2,0-0.4,0-0.5,0c-0.1,0.1-0.3,0.1-0.4,0.3c-0.1,0.2-0.1,0.4,0.1,0.5c0.1,0.1,0.2,0.1,0.3,0.1
			c0,0,0.1,0,0.1,0c0.1,0,0.3,0,0.4,0c0.1,0,0.2-0.1,0.3-0.2c0.1-0.1,0.1-0.2,0.1-0.3C24.2,19.5,24.1,19.3,23.8,19.2z"/>
		<path d="M27.2,5.7C27.6,6,28.2,6,28.7,6.1c0.6,0.1,1.2,0.2,1.7,0.3c0.5,0.1,1.1,0.3,1.6,0.4c0.5,0.2,1.1,0.4,1.6,0.5
			c0.1,0,0.2-0.1,0.1-0.2c-0.9-0.7-2.1-1.1-3.2-1.4c-0.6-0.2-1.2-0.3-1.8-0.4c-0.5-0.1-1.2-0.2-1.7,0C27,5.4,27,5.7,27.2,5.7z"/>
		<path d="M24.8,6.1c0.2,0,0.4,0,0.5,0c0.1-0.1,0.3-0.1,0.4-0.3c0.1-0.2,0.1-0.4-0.1-0.5c-0.1-0.1-0.2-0.1-0.3-0.1c0,0-0.1,0-0.1,0
			c-0.1,0-0.3,0-0.4,0c-0.1,0-0.2,0.1-0.3,0.2c-0.1,0.1-0.1,0.2-0.1,0.3C24.4,5.8,24.6,6,24.8,6.1z"/>
	</g>
</g>
</svg>
